<?xml version="1.0" standalone="no"?>
<!DOCTYPE svg PUBLIC "-//W3C//DTD SVG 20010904//EN"
 "http://www.w3.org/TR/2001/REC-SVG-20010904/DTD/svg10.dtd">
<svg version="1.0" xmlns="http://www.w3.org/2000/svg"
 width="2048.000000pt" height="1045.000000pt" viewBox="0 0 2048.000000 1045.000000"
 preserveAspectRatio="xMidYMid meet">
<metadata>
Created by potrace 1.15, written by Peter Selinger 2001-2017
</metadata>
<g transform="translate(0.000000,1045.000000) scale(0.100000,-0.100000)"
fill="#000000" stroke="none">
<path d="M7055 8784 c-93 -63 -143 -167 -219 -456 -130 -492 -358 -1798 -470
-2693 -47 -374 -49 -416 -37 -641 20 -366 73 -648 151 -810 47 -98 85 -134
140 -134 77 0 142 107 204 332 69 253 107 525 156 1108 87 1043 119 1321 175
1520 80 283 143 312 248 113 44 -84 43 -82 272 -813 360 -1151 506 -1560 702
-1958 117 -237 225 -387 309 -427 125 -59 232 43 293 280 35 134 49 234 96
695 103 1024 211 1890 255 2049 52 184 117 243 186 169 61 -65 72 -99 184
-564 474 -1966 720 -2738 1019 -3189 59 -90 180 -211 256 -257 73 -44 218
-103 430 -173 178 -59 260 -78 320 -73 72 6 63 30 -96 243 -343 462 -663 944
-778 1172 -83 166 -155 370 -325 923 -181 589 -427 1473 -750 2688 -113 425
-164 560 -262 698 -64 90 -152 154 -211 154 -74 -1 -160 -74 -221 -187 -110
-207 -216 -635 -257 -1043 -72 -707 -170 -1399 -241 -1698 -24 -106 -65 -212
-81 -212 -23 0 -27 13 -368 1073 -307 956 -548 1603 -696 1872 -56 101 -168
227 -223 250 -55 23 -117 19 -161 -11z"/>
<path d="M2570 8163 c-14 -2 -48 -11 -77 -19 l-51 -14 -75 -128 c-452 -766
-727 -1797 -727 -2723 0 -663 103 -1040 349 -1272 75 -70 156 -115 262 -144
88 -24 338 -24 464 0 517 100 1000 458 1494 1107 247 324 449 637 841 1300
135 228 288 470 297 470 3 0 2 -48 -1 -107 -7 -119 -30 -755 -46 -1268 -14
-436 3 -588 80 -751 76 -157 203 -224 293 -154 56 45 76 200 77 595 1 857 78
1647 212 2187 l42 168 -17 54 c-19 60 -63 107 -119 125 -32 10 -33 13 -30 50
l4 40 -92 46 c-51 26 -96 43 -100 38 -4 -4 -83 -129 -175 -278 -740 -1188
-1568 -2259 -2125 -2749 -338 -297 -560 -416 -776 -416 -157 0 -262 52 -349
174 -115 161 -161 346 -172 681 -5 178 -4 199 22 340 74 409 299 1184 457
1575 53 131 159 350 203 420 36 57 93 119 126 135 31 16 76 120 110 254 38
147 18 208 -81 248 -47 19 -73 22 -175 21 -66 0 -131 -3 -145 -5z"/>
<path d="M14315 6128 c-45 -40 -47 -96 -8 -213 89 -263 180 -628 219 -875 18
-113 23 -390 8 -427 -8 -20 -13 -16 -64 48 -85 108 -169 234 -312 469 -243
397 -342 530 -429 574 -86 42 -92 40 -143 -66 -160 -330 -365 -1391 -307
-1586 32 -107 105 -149 222 -125 51 10 132 95 159 168 22 57 24 79 31 400 7
343 19 491 43 549 l13 31 48 -95 c63 -125 206 -364 313 -520 157 -231 285
-383 358 -426 38 -23 51 -25 96 -19 116 16 194 62 264 158 113 152 166 438
143 773 -30 448 -181 814 -469 1135 -60 67 -62 69 -110 69 -36 0 -55 -6 -75
-22z"/>
<path d="M12344 5996 c-25 -11 -32 -22 -37 -52 -4 -24 -26 -66 -58 -109 -28
-38 -131 -189 -228 -335 -151 -228 -226 -353 -352 -590 l-24 -45 -91 -6 c-50
-3 -96 -9 -102 -13 -7 -4 -12 -24 -12 -45 0 -30 8 -46 35 -76 35 -37 75 -104
75 -126 0 -6 -18 -48 -39 -93 -89 -186 -113 -351 -72 -485 36 -119 99 -171
206 -171 98 0 187 108 200 243 15 157 51 274 99 322 l25 25 249 0 c188 0 252
-3 260 -12 5 -7 15 -80 22 -163 13 -171 20 -198 60 -254 43 -58 99 -84 185
-85 l70 -1 13 40 c11 32 13 97 8 320 -12 599 -97 1200 -215 1524 -33 91 -83
176 -112 191 -26 14 -129 11 -165 -4z m80 -878 c8 -40 16 -107 18 -148 l3 -75
-30 -6 c-46 -10 -208 -10 -224 0 -12 8 -9 24 19 98 37 99 89 207 128 266 l27
40 23 -51 c12 -28 29 -84 36 -124z"/>
<path d="M15325 4404 c-45 -25 -84 -64 -107 -108 -31 -60 -23 -161 17 -217 44
-62 101 -89 189 -89 85 0 138 21 183 73 86 98 64 250 -49 324 -35 24 -53 28
-122 31 -60 2 -89 -2 -111 -14z"/>
<path d="M14100 2090 l0 -930 285 0 285 0 0 173 0 174 96 88 c75 69 98 85 105
74 5 -8 69 -125 141 -261 l133 -248 313 0 c171 0 312 2 312 5 0 2 -118 194
-261 426 -144 232 -262 427 -263 433 0 6 110 114 247 240 136 125 247 232 247
237 0 5 -146 9 -337 9 l-338 0 -195 -214 -195 -215 -3 470 -2 469 -285 0 -285
0 0 -930z"/>
<path d="M11705 2691 c-11 -5 -54 -19 -95 -31 -227 -68 -413 -228 -515 -445
-61 -128 -75 -196 -75 -356 0 -220 55 -374 191 -533 109 -128 216 -200 382
-257 110 -38 114 -39 257 -39 140 0 149 1 250 36 150 50 228 100 340 213 106
108 162 197 206 326 23 68 28 101 32 226 5 172 -12 263 -77 394 -110 223 -292
372 -543 445 -91 26 -121 30 -219 29 -63 0 -123 -4 -134 -8z m271 -142 c89
-15 94 -18 94 -45 0 -14 7 -27 15 -30 19 -8 20 -30 1 -37 -19 -8 -43 12 -55
46 -6 15 -17 27 -25 27 -16 0 -39 -24 -30 -33 3 -3 -4 -8 -15 -12 -12 -3 -21
-14 -21 -24 0 -22 25 -45 39 -36 7 3 8 0 5 -9 -4 -9 5 -25 22 -41 l27 -25 -42
0 -41 0 0 -45 c0 -33 4 -45 15 -45 8 0 15 -4 15 -10 0 -5 -4 -10 -9 -10 -5 0
-14 -13 -21 -30 -7 -16 -17 -30 -22 -30 -5 0 -19 -17 -31 -37 -30 -52 -34
-140 -7 -165 11 -11 20 -22 20 -27 0 -4 9 -17 20 -29 16 -17 29 -20 73 -18 29
1 59 6 66 10 21 13 61 -14 61 -41 0 -13 9 -42 20 -64 15 -29 19 -49 14 -75 -4
-21 -1 -54 6 -77 40 -129 35 -122 73 -125 29 -3 41 3 71 34 19 20 38 45 41 55
4 11 11 19 16 19 5 0 9 13 9 28 0 16 9 37 20 47 21 19 27 74 10 91 -7 7 -2 21
16 45 51 68 73 154 37 143 -10 -3 -1 4 19 17 21 12 39 30 41 38 1 9 9 -21 16
-67 40 -248 -72 -515 -280 -668 -68 -50 -153 -84 -187 -75 -31 9 -60 3 -160
-34 -70 -26 -77 -27 -156 -17 -74 10 -87 15 -124 47 -26 24 -38 43 -35 52 10
27 -18 32 -65 12 l-44 -19 -48 35 c-89 65 -167 159 -214 258 -24 50 -50 117
-57 147 -15 64 -18 222 -5 295 7 42 10 47 17 28 4 -13 29 -32 54 -44 25 -12
45 -27 45 -33 0 -7 12 -19 26 -26 20 -11 24 -19 19 -40 -3 -14 -8 -36 -10 -49
-4 -26 27 -94 61 -131 19 -21 24 -43 33 -153 11 -131 25 -175 64 -209 11 -10
28 -18 39 -18 21 0 24 28 4 36 -10 4 -14 17 -11 42 2 21 4 45 4 55 1 9 8 17
16 17 9 0 19 8 22 18 4 9 14 23 24 29 9 7 24 31 33 53 11 27 22 40 35 40 25 0
38 18 46 65 4 22 13 50 21 62 29 46 11 69 -78 103 -37 14 -59 28 -63 41 -4 12
-21 27 -39 34 -17 7 -40 23 -50 34 -13 14 -26 19 -38 15 -10 -3 -25 0 -33 6
-12 10 -20 9 -40 -4 -34 -22 -45 -20 -45 9 0 14 -6 28 -14 31 -8 3 -12 13 -9
23 3 13 11 17 30 13 24 -5 25 -3 22 47 -2 41 1 55 19 74 12 13 22 27 22 32 0
17 53 85 62 79 15 -10 58 24 52 41 -4 9 6 27 25 44 36 34 39 50 11 74 -11 9
-20 24 -20 32 0 19 89 62 99 48 19 -28 81 -12 81 22 0 24 173 33 276 14z"/>
<path d="M13654 2528 c-107 -12 -192 -73 -255 -183 l-29 -50 0 108 0 107 -260
0 -260 0 0 -675 0 -675 279 0 279 0 5 323 c5 328 14 409 52 501 19 44 69 103
106 122 36 18 125 18 179 -1 23 -8 48 -15 55 -15 11 0 175 344 175 368 0 9
-72 41 -130 58 -48 14 -136 19 -196 12z"/>
<path d="M8440 2503 c0 -5 118 -308 262 -675 l262 -668 250 0 251 0 134 390
c74 214 136 388 138 386 3 -2 66 -177 141 -387 l137 -384 250 -3 250 -2 257
657 c141 362 260 666 263 676 7 16 -10 17 -262 17 l-268 0 -109 -402 c-60
-222 -112 -406 -115 -411 -4 -4 -72 176 -152 400 l-144 408 -250 3 -250 2
-140 -409 c-77 -226 -143 -407 -146 -403 -4 4 -55 188 -115 410 l-109 402
-267 0 c-148 0 -268 -3 -268 -7z"/>
</g>
</svg>
