<?xml version="1.0" encoding="UTF-8"?>
<!DOCTYPE svg PUBLIC "-//W3C//DTD SVG 1.1//EN" "http://www.w3.org/Graphics/SVG/1.1/DTD/svg11.dtd">
<!-- Creator: CorelDRAW 2018 (64-Bit) -->
<svg xmlns="http://www.w3.org/2000/svg" xml:space="preserve" width="229.581mm" height="57.8782mm" version="1.1" style="shape-rendering:geometricPrecision; text-rendering:geometricPrecision; image-rendering:optimizeQuality; fill-rule:evenodd; clip-rule:evenodd"
viewBox="0 0 25149.22 6340.2"
 xmlns:xlink="http://www.w3.org/1999/xlink">
 <defs>
  <style type="text/css">
   <![CDATA[
    .fil0 {fill:black}
    .fil1 {fill:black;fill-rule:nonzero}
   ]]>
  </style>
 </defs>
 <g id="Слой_x0020_1">
  <metadata id="CorelCorpID_0Corel-Layer"/>
  <path class="fil0" d="M5771.52 27.48c-99.12,67.14 -152.41,177.99 -233.42,486.01 -138.55,524.4 -381.56,1916.38 -500.94,2870.31 -50.09,398.62 -52.22,443.39 -39.44,683.2 21.32,390.1 77.81,690.66 160.94,863.33 50.09,104.45 90.59,142.82 149.22,142.82 82.07,0 151.35,-114.05 217.42,-353.86 73.55,-269.65 114.05,-559.56 166.28,-1180.95 92.73,-1111.67 126.83,-1407.97 186.52,-1620.08 85.27,-301.63 152.41,-332.54 264.33,-120.43 46.9,89.53 45.83,87.39 289.91,866.53 383.7,1226.77 539.32,1662.7 748.22,2086.91 124.7,252.6 239.81,412.48 329.34,455.11 133.23,62.89 247.27,-45.83 312.29,-298.43 37.31,-142.82 52.23,-249.41 102.32,-740.77 109.78,-1091.41 224.89,-2014.44 271.79,-2183.9 55.42,-196.12 124.7,-258.99 198.24,-180.12 65.01,69.28 76.75,105.51 196.12,601.13 505.21,2095.43 767.41,2918.27 1086.09,3398.96 62.88,95.93 191.84,224.89 272.85,273.91 77.81,46.9 232.35,109.78 458.31,184.4 189.72,62.89 277.11,83.13 341.06,77.81 76.75,-6.4 67.15,-31.98 -102.31,-259.01 -365.59,-492.41 -706.66,-1006.15 -829.23,-1249.16 -88.47,-176.92 -165.2,-394.36 -346.4,-983.77 -192.92,-627.77 -455.11,-1569.98 -799.37,-2864.98 -120.44,-452.97 -174.8,-596.86 -279.25,-743.96 -68.21,-95.92 -162.02,-164.13 -224.89,-164.13 -78.87,1.06 -170.54,78.87 -235.55,199.3 -117.24,220.63 -230.22,676.81 -273.93,1111.67 -76.74,753.54 -181.19,1491.1 -256.86,1809.8 -25.58,112.97 -69.29,225.96 -86.33,225.96 -24.52,0 -28.78,-13.86 -392.23,-1143.65 -327.21,-1018.94 -584.08,-1708.53 -741.82,-1995.25 -59.69,-107.65 -179.06,-241.94 -237.68,-266.45 -58.63,-24.52 -124.7,-20.25 -171.6,11.73l-0.01 0z"/>
  <path class="fil0" d="M991.23 689.36c-14.92,2.14 -51.16,11.73 -82.07,20.25l-54.36 14.92 -79.93 136.44c-481.76,816.43 -774.87,1915.31 -774.87,2902.28 0,706.65 109.78,1108.47 371.98,1355.75 79.93,74.6 166.28,122.57 279.25,153.47 93.79,25.59 360.26,25.59 494.56,0 551.03,-106.58 1065.83,-488.15 1592.36,-1179.88 263.26,-345.34 478.55,-678.94 896.36,-1385.59 143.89,-243.01 306.96,-500.96 316.55,-500.96 3.2,0 2.14,51.17 -1.06,114.05 -7.46,126.84 -31.98,804.71 -49.03,1351.49 -14.92,464.71 3.2,626.71 85.27,800.45 81.01,167.33 216.37,238.74 312.29,164.13 59.69,-47.96 81.01,-213.16 82.07,-634.17 1.07,-913.42 83.14,-1755.43 225.97,-2330.98l44.76 -179.06 -18.12 -57.55c-20.25,-63.95 -67.15,-114.05 -126.83,-133.24 -34.11,-10.66 -35.17,-13.85 -31.98,-53.29l4.26 -42.62 -98.06 -49.03c-54.36,-27.71 -102.31,-45.83 -106.58,-40.51 -4.27,4.26 -88.47,137.5 -186.53,296.31 -788.72,1266.22 -1671.23,2407.73 -2264.91,2929.99 -360.25,316.55 -596.86,443.39 -827.09,443.39 -167.34,0 -279.25,-55.42 -371.98,-185.46 -122.57,-171.6 -171.6,-368.78 -183.32,-725.84 -5.32,-189.72 -4.26,-212.1 23.45,-362.38 78.87,-435.93 318.69,-1261.96 487.09,-1678.69 56.48,-139.62 169.46,-373.04 216.36,-447.65 38.37,-60.75 99.13,-126.84 134.3,-143.89 33.04,-17.06 81,-127.9 117.23,-270.73 40.51,-156.68 19.19,-221.69 -86.33,-264.33 -50.09,-20.25 -77.8,-23.45 -186.52,-22.38 -70.34,0 -139.62,3.19 -154.54,5.32l0 0z"/>
  <path class="fil0" d="M13509.51 2858.35c-47.97,42.63 -50.09,102.31 -8.53,227.02 94.87,280.32 191.86,669.35 233.43,932.61 19.18,120.44 24.5,415.68 8.52,455.11 -8.52,21.32 -13.86,17.06 -68.21,-51.16 -90.6,-115.11 -180.12,-249.41 -332.54,-499.88 -259.01,-423.14 -364.52,-564.9 -457.25,-611.79 -91.67,-44.76 -98.06,-42.63 -152.42,70.35 -170.53,351.72 -389.02,1482.58 -327.21,1690.42 34.1,114.05 111.91,158.82 236.61,133.24 54.36,-10.66 140.69,-101.26 169.46,-179.07 23.45,-60.74 25.59,-84.2 33.05,-426.33 7.46,-365.58 20.24,-523.32 45.82,-585.14l13.86 -33.04 51.16 101.25c67.15,133.23 219.57,387.96 333.6,554.24 167.34,246.21 303.77,408.22 381.57,454.05 40.5,24.5 54.36,26.64 102.32,20.24 123.63,-17.05 206.78,-66.08 281.37,-168.4 120.44,-162 176.94,-466.83 152.42,-823.89 -31.98,-477.49 -192.92,-867.59 -499.88,-1209.73 -63.95,-71.41 -66.08,-73.55 -117.24,-73.55 -38.37,0 -58.62,6.4 -79.93,23.45l0.01 0z"/>
  <path class="fil0" d="M11408.74 2999.04c-26.65,11.72 -34.11,23.44 -39.44,55.42 -4.27,25.58 -27.71,70.35 -61.83,116.18 -29.84,40.5 -139.62,201.44 -243.01,357.06 -160.93,243 -240.88,376.24 -375.17,628.84l-25.59 47.97 -96.99 6.4c-53.29,3.2 -102.32,9.59 -108.71,13.86 -7.46,4.26 -12.79,25.58 -12.79,47.96 0,31.98 8.53,49.03 37.31,81.01 37.3,39.44 79.93,110.85 79.93,134.29 0,6.4 -19.18,51.16 -41.57,99.13 -94.85,198.24 -120.43,374.1 -76.74,516.93 38.37,126.84 105.52,182.26 219.56,182.26 104.45,0 199.32,-115.11 213.17,-258.99 15.99,-167.34 54.36,-292.04 105.51,-343.2l26.65 -26.64 265.39 0c200.38,0 268.59,3.19 277.11,12.78 5.33,7.46 15.99,85.27 23.45,173.74 13.86,182.26 21.32,211.04 63.95,270.72 45.83,61.83 105.51,89.53 197.18,90.6l74.61 1.06 13.86 -42.63c11.72,-34.1 13.85,-103.39 8.52,-341.06 -12.79,-638.44 -103.39,-1279.01 -229.15,-1624.34 -35.17,-96.99 -88.47,-187.58 -119.37,-203.58 -27.71,-14.92 -137.5,-11.72 -175.86,4.26l0 0zm85.27 935.8c8.52,42.63 17.05,114.05 19.18,157.74l3.2 79.95 -31.98 6.4c-49.03,10.66 -221.69,10.66 -238.75,0 -12.78,-8.53 -9.59,-25.59 20.25,-104.46 39.44,-105.51 94.85,-220.62 136.43,-283.51l28.78 -42.63 24.52 54.37c12.79,29.84 30.91,89.53 38.37,132.15l0 0z"/>
  <path class="fil0" d="M14586.01 4695.85c-47.97,26.65 -89.53,68.21 -114.05,115.11 -33.04,63.95 -24.52,171.6 18.12,231.29 46.9,66.09 107.65,94.87 201.44,94.87 90.59,0 147.08,-22.39 195.05,-77.81 91.66,-104.45 68.21,-266.47 -52.23,-345.34 -37.3,-25.58 -56.49,-29.84 -130.03,-33.04 -63.95,-2.14 -94.87,2.14 -118.31,14.92z"/>
  <path class="fil1" d="M19567.92 3612.94c0,-797.1 29.74,-1475.23 29.74,-2010.6 0,-743.56 -95.17,-1344.37 -577,-1427.64 -963.66,160.61 -2260.44,1921.38 -2748.22,2772.01 -297.43,-118.96 -600.8,-267.68 -910.12,-463.98 -53.53,416.4 -41.64,618.65 309.32,779.26 101.13,47.59 226.04,95.17 368.81,142.76 -469.93,1058.84 -737.62,1885.68 -737.62,2302.08 0,469.93 249.85,571.06 832.8,624.6 -23.79,-214.15 -47.59,-511.57 -17.84,-707.87 118.98,-719.77 339.07,-1421.69 606.75,-2058.19 725.72,124.91 1576.36,154.67 2135.51,-5.95 -11.9,214.15 -23.79,410.45 -23.79,577 0,749.52 249.84,1177.82 684.08,1177.82 184.41,0 345.01,-77.34 475.88,-220.1 -202.25,-273.64 -428.29,-701.92 -428.29,-1481.19zm-2658.98 -458.04c648.38,-1362.21 1499.02,-2367.51 1957.06,-2563.81 142.77,-11.9 178.46,261.73 178.46,523.47 0,541.32 -95.18,1374.11 -154.67,2105.77 -588.9,107.08 -1255.13,118.98 -1980.85,-65.43z"/>
  <path class="fil1" d="M22597.3 5456.98c1005.31,0 2551.91,-695.98 2551.91,-1998.7 0,-618.64 -695.98,-725.72 -1564.45,-719.77 -297.43,0 -600.8,-5.95 -933.93,-113.02 -107.07,142.76 -160.6,267.68 -160.6,386.66 0,172.5 154.65,279.58 428.29,279.58 285.53,0 600.79,-53.53 886.33,-89.23 487.78,-71.38 844.68,89.23 844.68,398.55 0,743.56 -999.35,1457.38 -2052.24,1457.38 -1058.83,0 -1778.61,-820.89 -1778.61,-2010.59 0,-1136.17 797.11,-2450.79 2141.47,-2456.74 672.18,-5.95 1267.03,327.16 1641.79,904.18 261.73,-53.53 452.09,-226.04 446.14,-398.55 -11.9,-279.58 -880.38,-838.74 -2022.5,-832.79 -2070.08,5.95 -3039.69,1415.75 -3039.69,2777.96 0,1427.64 1058.83,2415.09 2611.39,2415.09z"/>
 </g>
</svg>
